# xmcd CD database file
#
# Track frame offsets:
#	150
#	13968
#	35478
#	47809
#	62604
#	75483
#	94916
#	112386
#	129572
#	142092
#	152605
#	165243
#	173060
#	189539
#	203260
#
# Disc length: 2944 seconds
#
# Revision: 0
# Processed by: cddbd v1.4PL0 Copyright (c) Steve Scherf et al.
# Submitted via: CDex 1.40Release
#
DISCID=c60b7e0f
DTITLE=Various Artist - from mississippi to chicago
DYEAR=1900
DGENRE=Blues
TTITLE0=poor black mattie - rl burnside
TTITLE1=kansas city - pinetop perkins
TTITLE2=the lord will make a way somehow - robert curtis smith
TTITLE3=tommy dorsey's boogie woogie - boogaloo ames
TTITLE4=see my jumper hangin' on the line - rl burnside
TTITLE5=lye water conversion - robert curtis smith
TTITLE6=everyday i have the blues - pinetop perkins
TTITLE7=fireman ring the bell - rl burnise
TTITLE8=gonna lose a good man - eddie cusic
TTITLE9=skinny woman - rl burnside
TTITLE10=thank you - robert curtis smith
TTITLE11=milky white way - robert curtis msith
TTITLE12=bad luck - rl burnisde
TTITLE13=calvary - robert curtis smith
TTITLE14=after hours - boogaloo ames
EXTD=ID3G: 0
EXTT0=
EXTT1=
EXTT2=
EXTT3=
EXTT4=
EXTT5=
EXTT6=
EXTT7=
EXTT8=
EXTT9=
EXTT10=
EXTT11=
EXTT12=
EXTT13=
EXTT14=
PLAYORDER=
